# xmcd
#
# Track frame offsets:
#	150
#	21950
#	38543
#	58985
#	73363
#	89591
#	109086
#	125761
#	144068
#	161690
#	176977
#	193774
#	211854
#
# Disc length: 3084 seconds
#
# Revision: 1
# Processed by: cddbd v1.5.1PL0 Copyright (c) Steve Scherf et al.
# Submitted via: EasyCDDAExtractor 8.2.1.1
#
DISCID=c40c0a0d
DTITLE=пиеяидг лаяиамта - алпяа йаталпяа
DYEAR=2004
DGENRE=еККГМИЙэ кАЗЙэ
TTITLE0=пес лоу лиа жояа
TTITLE1=та пио лецака омеияа
TTITLE2=ваияетислата
TTITLE3=суццмылг
TTITLE4=та апацояеулема
TTITLE5=алпяа йаталпяа
TTITLE6=лес та дуо соу латиа
TTITLE7=оливкг
TTITLE8=ти ма соу цяаьы
TTITLE9=лайяи╒ йи ацапглемои
TTITLE10=жикгсе ле
TTITLE11=сто амтихето яеула
TTITLE12=де се непеяаса
EXTD=
EXTT0=
EXTT1=
EXTT2=
EXTT3=
EXTT4=
EXTT5=
EXTT6=
EXTT7=
EXTT8=
EXTT9=
EXTT10=
EXTT11=
EXTT12=
PLAYORDER=
